<?xml version="1.0" encoding="UTF-8"?>
<svg id="Layer_1" data-name="Layer 1" xmlns="http://www.w3.org/2000/svg" viewBox="0 0 375.84 189.14">
  <defs>
    <style>
      .cls-1 {
        fill: #2e3192;
        stroke: #2e3192;
        stroke-width: 4.04px;
      }

      .cls-1, .cls-2 {
        stroke-miterlimit: 10;
      }

      .cls-2 {
        fill: #27aae1;
        stroke: #662d91;
        stroke-width: 2.77px;
      }
    </style>
  </defs>
  <path class="cls-1" d="m18.17,60.1v-10.03h80.24c1.92,0,3.06,2.15,1.98,3.74l-2.73,4.04L29.93,157.12c-.95,1.39.05,3.27,1.73,3.27h71.76v10.03H13.16c-1.92,0-3.06-2.15-1.98-3.74l2.73-4.04L81.64,63.36c.95-1.39-.05-3.27-1.73-3.27H18.17Z"/>
  <path class="cls-2" d="m209.91,106.77c1.99,19.96-4.29,36.61-18.82,49.95-9.97,9.16-22.12,13.72-36.43,13.7-17.5-.27-32.46-7.18-44.9-20.73-10.4-11.33-15.99-24.46-16.77-39.4-.92-17.07,4.64-31.15,16.71-42.23,10.1-9.27,22.36-13.83,36.79-13.69,17.37.39,32.22,7.3,44.54,20.72l3.39,3.69-3.69,3.39-70.01,64.26c7.52,6.71,16.09,11.1,25.7,13.17,14.79,2.76,27.42-.66,37.88-10.27,11.94-10.96,17.15-24.82,15.62-41.57l9.98-.99Zm-29.65-28.6c-6.78-7.39-15.7-11.91-26.75-13.57-14.58-2.04-26.92,1.57-37.02,10.84-6.9,6.33-11.26,14.31-13.09,23.93-2.38,14.22,1.13,27.44,10.55,39.67l66.31-60.87Z"/>
  <path class="cls-2" d="m231.26,137.57v2.26c1.34,13.71,11.28,20.56,29.84,20.56h5.02v10.03h-5.02c-2.68,0-5.35-.16-8.02-.5-21.06-2.17-31.68-12.95-31.84-32.35V60.1h-20.31v-10.03h20.31v-31.34h10.03v31.34h34.85v10.03h-34.85v77.48Z"/>
  <path class="cls-2" d="m269.3,69.37c11.03-12.87,24.57-19.31,40.62-19.31,2.84,0,5.77.25,8.78.75,15.21,2.68,27.33,10.95,36.36,24.82v-25.58h10.03v120.35h-10.03v-25.58c-1.34,2.01-2.84,4.1-4.51,6.27-11.03,12.87-24.57,19.31-40.62,19.31-13.71,0-25.83-4.93-36.36-14.79-12.54-12.04-18.81-27.16-18.81-45.38,0-15.55,4.85-29.17,14.54-40.87Zm6.02,73.22c9.03,11.87,20.56,17.8,34.6,17.8,10.7,0,20.22-3.76,28.58-11.28,11.03-10.03,16.55-22.98,16.55-38.86,0-12.04-3.51-22.82-10.53-32.35-9.03-11.87-20.56-17.8-34.6-17.8-10.7,0-20.23,3.76-28.58,11.28-11.03,10.03-16.55,22.99-16.55,38.86,0,12.04,3.51,22.82,10.53,32.35Z"/>
</svg>