<?xml version="1.0" encoding="UTF-8"?>
<svg id="Layer_1" data-name="Layer 1" xmlns="http://www.w3.org/2000/svg" viewBox="0 0 489.42 128.66">
  <defs>
    <style>
      .cls-1, .cls-2 {
        fill: #2e3192;
      }

      .cls-2 {
        font-family: ShadowHand, ShadowHand;
        font-size: 92.7px;
        stroke: #2e3192;
        stroke-miterlimit: 10;
        stroke-width: 1.82px;
      }
    </style>
  </defs>
  <g>
    <path class="cls-1" d="m78.2,50.83c-6.57-.92-12.12.71-16.67,4.88-3.11,2.85-5.07,6.44-5.89,10.78-1.07,6.4.51,12.36,4.75,17.86l29.86-27.41c-3.05-3.33-7.07-5.36-12.04-6.11Z"/>
    <path class="cls-1" d="m148.62,48.81c-4.82,0-9.11,1.69-12.87,5.08-4.97,4.52-7.45,10.35-7.45,17.5,0,5.42,1.58,10.28,4.74,14.57,4.07,5.34,9.26,8.01,15.58,8.01,4.82,0,9.1-1.69,12.87-5.08,4.97-4.52,7.45-10.35,7.45-17.5,0-5.42-1.58-10.28-4.74-14.57-4.07-5.34-9.26-8.01-15.58-8.01Z"/>
    <path class="cls-1" d="m149.51,0H37.88C16.96,0,0,16.96,0,37.88v52.9c0,20.92,16.96,37.88,37.88,37.88h111.63c20.92,0,37.88-16.96,37.88-37.88v-52.9c0-20.92-16.96-37.88-37.88-37.88ZM55.64,98.48H15c-.86,0-1.38-.97-.89-1.68l1.23-1.82,30.5-44.7c.43-.63-.02-1.47-.78-1.47h-27.8v-4.51h36.13c.86,0,1.38.97.89,1.68l-1.23,1.82-30.5,44.7c-.43.63.02,1.47.78,1.47h32.31v4.52Zm39.48-6.17c-4.49,4.12-9.96,6.18-16.4,6.17-7.88-.12-14.62-3.23-20.22-9.33-4.68-5.1-7.2-11.01-7.55-17.74-.41-7.69,2.09-14.03,7.52-19.02,4.55-4.17,10.07-6.23,16.57-6.16,7.82.18,14.51,3.29,20.06,9.33l1.53,1.66-1.66,1.53-31.52,28.94c3.39,3.02,7.24,5,11.57,5.93,6.66,1.24,12.35-.3,17.06-4.62,5.38-4.94,7.72-11.18,7.03-18.72l4.49-.45h0c.9,8.99-1.93,16.48-8.47,22.49Zm33.78,6.17h-2.26c-1.21,0-2.41-.07-3.61-.23-9.48-.98-14.26-5.83-14.34-14.57v-34.88h-9.15v-4.52h9.15v-14.11h4.52v14.11h15.69v4.52h-15.69v34.89h0s0,1.01,0,1.01c.6,6.17,5.08,9.26,13.44,9.26h2.26v4.52Zm44.56,0h-4.52v-11.52c-.6.91-1.28,1.85-2.03,2.82-4.97,5.8-11.06,8.69-18.29,8.69-6.17,0-11.63-2.22-16.37-6.66-5.65-5.42-8.47-12.23-8.47-20.43,0-7,2.18-13.13,6.55-18.4h0c4.97-5.79,11.06-8.69,18.29-8.69,1.28,0,2.6.11,3.95.34,6.85,1.21,12.31,4.93,16.37,11.18v-11.52h4.52v54.19Z"/>
  </g>
  <text class="cls-2" transform="translate(200.16 99.83) scale(1.26 1)"><tspan x="0" y="0">TUBE</tspan></text>
</svg>